simulation
nRows=49
nColumns=15
endheader
time  TH_x TH_y TH_z SC_y  SC_z  SC_x  AC_y  AC_z  AC_x  GH_y  GH_z  GH_yy  EL_x  PS_y
0.000000  0.000000  0.000000  0.000000  -35.317197  -1.013876  -2.471530  46.200854  4.869116  -0.346288  33.070904  12.835111  -27.141758  66.239008  117.143805
0.030303  0.000000  0.000000  0.000000  -35.123287  -1.171897  -2.604217  45.974278  5.131889  -0.568998  36.121814  12.871910  -29.348642  65.631110  117.042783
0.060606  0.000000  0.000000  0.000000  -34.918750  -1.247602  -2.677418  45.677375  5.304449  -0.810117  37.745185  12.902740  -30.330788  66.233527  117.310193
0.090909  0.000000  0.000000  0.000000  -34.715311  -1.241222  -2.681167  45.328962  5.397010  -1.047942  38.190935  12.958110  -30.328294  67.856483  117.851834
0.121212  0.000000  0.000000  0.000000  -34.524695  -1.152992  -2.587507  44.948805  5.407253  -1.273593  37.708983  13.068532  -29.581252  70.310204  118.573506
0.151515  0.000000  0.000000  0.000000  -34.358626  -0.983143  -2.369629  44.556390  5.334026  -1.477529  36.549250  13.264517  -28.329759  73.404915  119.381008
0.181818  0.000000  0.000000  0.000000  -34.228831  -0.731910  -2.004361  44.170660  5.178904  -1.647526  34.961655  13.576576  -26.813909  76.950840  120.180140
0.212121  0.000000  0.000000  0.000000  -34.147033  -0.399526  -1.463871  43.810506  4.940155  -1.774400  33.196117  14.035220  -25.273796  80.758204  120.876701
0.242424  0.000000  0.000000  0.000000  -34.124957  0.013777  -0.720946  43.494324  4.616221  -1.848045  31.502555  14.670959  -23.949517  84.637234  121.376490
0.272727  0.000000  0.000000  0.000000  -34.174330  0.507765  0.254897  43.240162  4.202738  -1.860029  30.130890  15.514305  -23.081166  88.398154  121.585308
0.303030  0.000000  0.000000  0.000000  -34.306875  1.082204  1.497439  43.065537  3.692189  -1.803403  29.331040  16.595768  -22.908837  91.851188  121.408954
0.333333  0.000000  0.000000  0.000000  -34.533123  1.735886  3.030281  42.985517  3.082344  -1.666028  29.338797  17.943699  -23.658544  94.810272  120.759703
0.363636  0.000000  0.000000  0.000000  -34.844142  2.451678  4.837507  42.994630  2.390885  -1.462626  30.159867  19.551260  -25.326943  97.149753  119.655282
0.393939  0.000000  0.000000  0.000000  -35.215165  3.199503  6.854373  43.071775  1.663888  -1.218451  31.612766  21.382983  -27.724098  98.793130  118.199212
0.424242  0.000000  0.000000  0.000000  -35.620967  3.948901  9.010145  43.198006  0.951890  -0.956389  33.510573  23.402569  -30.654656  99.665328  116.497504
0.454545  0.000000  0.000000  0.000000  -36.036321  4.669418  11.231436  43.357533  0.308221  -0.698338  35.666371  25.573721  -33.923261  99.691272  114.656171
0.484848  0.000000  0.000000  0.000000  -36.436168  5.330910  13.441959  43.537791  -0.210850  -0.464334  37.894321  27.859963  -37.335370  98.797360  112.780722
0.515152  0.000000  0.000000  0.000000  -36.803257  5.917988  15.597009  43.733826  -0.583375  -0.259232  40.059709  30.216400  -40.734777  96.979560  110.953012
0.545455  0.000000  0.000000  0.000000  -37.131363  6.436106  17.704665  43.947452  -0.842797  -0.071329  42.099996  32.586253  -44.019397  94.332067  109.221492
0.575758  0.000000  0.000000  0.000000  -37.415093  6.892286  19.780692  44.178845  -1.029358  0.109676  43.958099  34.911845  -47.091238  90.956495  107.632092
0.606061  0.000000  0.000000  0.000000  -37.649056  7.293555  21.841926  44.426265  -1.184088  0.293300  45.576933  37.135499  -49.852304  86.954459  106.230740
0.636364  0.000000  0.000000  0.000000  -37.827865  7.646933  23.907028  44.686285  -1.349349  0.487722  46.899487  39.199606  -52.204705  82.427567  105.063317
0.666667  0.000000  0.000000  0.000000  -37.947973  7.958862  25.976201  44.953470  -1.555485  0.696857  47.897425  41.072798  -54.090787  77.475015  104.156534
0.696970  0.000000  0.000000  0.000000  -38.010462  8.234309  28.000432  45.220365  -1.800210  0.915557  48.614488  42.789663  -55.554028  72.189934  103.488924
0.727273  0.000000  0.000000  0.000000  -38.017126  8.478019  29.922953  45.479067  -2.075443  1.136737  49.105561  44.394989  -56.653543  66.664519  103.031571
0.757576  0.000000  0.000000  0.000000  -37.969762  8.694733  31.686301  45.721636  -2.371919  1.353094  49.425526  45.933562  -57.448447  60.990966  102.755558
0.787879  0.000000  0.000000  0.000000  -37.870167  8.889195  33.232069  45.940269  -2.679088  1.557352  49.629269  47.450169  -57.997856  55.261468  102.631970
0.818182  0.000000  0.000000  0.000000  -37.720649  9.065199  34.511418  46.128341  -2.985917  1.741939  49.764808  48.976450  -58.356080  49.570785  102.625590
0.848485  0.000000  0.000000  0.000000  -37.525925  9.222097  35.519580  46.283937  -3.280601  1.900643  49.847993  50.482451  -58.554932  44.025692  102.671679
0.878788  0.000000  0.000000  0.000000  -37.291417  9.357943  36.252885  46.407450  -3.542808  2.036046  49.885263  51.920193  -58.619635  38.736482  102.696861
0.909091  0.000000  0.000000  0.000000  -37.022543  9.470789  36.723395  46.499150  -3.763853  2.140128  49.883053  53.241695  -58.575415  33.813444  102.627756
0.939394  0.000000  0.000000  0.000000  -36.724725  9.558687  36.934309  46.559990  -3.928970  2.211349  49.847800  54.398975  -58.447495  29.366873  102.390988
0.969697  0.000000  0.000000  0.000000  -36.403529  9.619817  36.886996  46.591643  -4.022311  2.251928  49.785779  55.349075  -58.259748  25.496088  101.922027
1.000000  0.000000  0.000000  0.000000  -36.065840  9.653527  36.614947  46.598240  -4.050805  2.261648  49.701787  56.094724  -58.023727  22.200619  101.236854
1.030303  0.000000  0.000000  0.000000  -35.719248  9.659785  36.155264  46.585511  -4.023760  2.248379  49.599836  56.663034  -57.744417  19.426722  100.394421
1.060606  0.000000  0.000000  0.000000  -35.371350  9.638566  35.549941  46.558531  -3.954076  2.216757  49.483932  57.081352  -57.426737  17.120157  99.454084
1.090909  0.000000  0.000000  0.000000  -35.029741  9.589844  34.838281  46.522173  -3.852579  2.173144  49.358076  57.377019  -57.075607  15.226681  98.475200
1.121212  0.000000  0.000000  0.000000  -34.701866  9.513768  34.062991  46.480915  -3.732392  2.121141  49.226145  57.577263  -56.695969  13.691995  97.515727
1.151515  0.000000  0.000000  0.000000  -34.392076  9.414047  33.256744  46.437407  -3.599629  2.066856  49.089372  57.706908  -56.293197  12.460577  96.605097
1.181818  0.000000  0.000000  0.000000  -34.101829  9.297708  32.456555  46.392049  -3.464061  2.009557  48.946522  57.788539  -55.873066  11.475768  95.746114
1.212121  0.000000  0.000000  0.000000  -33.832476  9.171909  31.694550  46.345671  -3.332177  1.951997  48.796268  57.844653  -55.441367  10.680867  94.940560
1.242424  0.000000  0.000000  0.000000  -33.585364  9.043806  31.001885  46.300312  -3.210056  1.897911  48.637282  57.897749  -55.003892  10.019171  94.190219
1.272727  0.000000  0.000000  0.000000  -33.361909  8.920549  30.411060  46.261000  -3.105126  1.850370  48.468306  57.970112  -54.566628  9.434494  93.497129
1.303030  0.000000  0.000000  0.000000  -33.168064  8.808864  29.938746  46.239505  -3.018802  1.818176  48.292736  58.069496  -54.149009  8.905936  92.880889
1.333333  0.000000  0.000000  0.000000  -33.017149  8.714787  29.587471  46.250926  -2.950075  1.810319  48.121537  58.180050  -53.792311  8.469921  92.389623
1.363636  0.000000  0.000000  0.000000  -32.923161  8.644292  29.360552  46.305518  -2.897903  1.833051  47.966368  58.283758  -53.539811  8.168127  92.074065
1.393939  0.000000  0.000000  0.000000  -32.900097  8.603352  29.265797  46.406071  -2.863798  1.888524  47.838885  58.362607  -53.434788  8.042228  91.984953
1.424242  0.000000  0.000000  0.000000  -32.961949  8.597940  29.315678  46.547722  -2.853126  1.975560  47.750748  58.398581  -53.520497  8.133903  92.173001
1.454545  0.000000  0.000000  0.000000  -33.118819  8.632290  29.523078  46.715795  -2.872925  2.085883  47.715626  58.372585  -53.816250  8.486487  92.663622
